<?xml version="1.0" standalone="no"?>
<!DOCTYPE svg PUBLIC "-//W3C//DTD SVG 20010904//EN"
 "http://www.w3.org/TR/2001/REC-SVG-20010904/DTD/svg10.dtd">
<svg version="1.0" xmlns="http://www.w3.org/2000/svg"
 width="740.000000pt" height="740.000000pt" viewBox="0 0 740.000000 740.000000"
 preserveAspectRatio="xMidYMid meet">
<metadata>
Created by potrace 1.14, written by Peter Selinger 2001-2017
</metadata>
<g transform="translate(0.000000,740.000000) scale(0.100000,-0.100000)"
fill="#000000" stroke="none">
<path d="M3000 4413 c0 -955 -4 -1468 -11 -1528 -23 -198 -115 -389 -254 -530
-184 -186 -399 -277 -655 -278 -139 0 -240 20 -359 72 -314 135 -526 427 -557
766 l-7 75 -210 0 -210 0 7 -92 c13 -180 59 -344 138 -503 72 -143 139 -236
253 -350 188 -189 416 -311 690 -371 112 -24 398 -24 510 0 270 59 502 183
686 366 53 53 119 130 148 171 100 141 182 329 227 519 17 69 18 173 21 1398
l4 1322 502 0 c533 -1 652 -8 817 -50 625 -158 1095 -650 1231 -1290 20 -90
23 -135 23 -320 0 -185 -3 -230 -23 -320 -110 -515 -429 -934 -886 -1164 -251
-126 -484 -176 -816 -176 l-149 0 0 430 0 430 -200 0 -200 0 0 -636 0 -636
408 5 c432 5 513 12 713 62 271 68 547 201 764 370 393 305 661 738 759 1226
39 193 52 379 37 546 -44 505 -236 936 -573 1288 -333 348 -785 570 -1273 625
-52 6 -398 10 -822 10 l-733 0 0 -1437z"/>
</g>
</svg>
